<?xml version="1.0" standalone="no"?>
<!DOCTYPE svg PUBLIC "-//W3C//DTD SVG 20010904//EN"
 "http://www.w3.org/TR/2001/REC-SVG-20010904/DTD/svg10.dtd">
<svg version="1.0" xmlns="http://www.w3.org/2000/svg"
 width="100" height="22" viewBox="0 0 300.000000 223.000000"
 preserveAspectRatio="xMidYMid meet">
<metadata>
Created by potrace 1.10, written by Peter Selinger 2001-2011
</metadata>
<g transform="translate(0.000000,223.000000) scale(0.100000,-0.100000)"
fill="#000000" stroke="none">
<path d="M1564 1281 c-17 -5 -53 -18 -79 -31 -65 -31 -75 -60 -76 -210 0 -173
25 -250 82 -250 39 0 69 48 69 110 0 41 3 46 31 59 16 7 41 25 54 39 18 19 28
23 36 15 8 -8 2 -22 -20 -53 -36 -50 -38 -73 -11 -117 31 -51 62 -67 121 -60
34 4 60 2 78 -7 33 -17 67 -5 83 28 11 25 11 25 28 6 21 -24 57 -26 82 -3 17
15 19 15 39 -3 18 -16 37 -19 118 -19 68 1 105 5 125 17 27 14 32 14 61 -4 23
-13 49 -18 86 -17 30 1 67 -2 82 -6 21 -6 35 -3 56 13 24 17 29 18 46 6 28
-21 53 -17 80 12 21 23 24 23 29 7 3 -10 15 -24 26 -30 46 -29 99 35 120 146
21 113 6 189 -46 230 -30 23 -56 26 -102 10 -24 -8 -35 -7 -55 5 -22 15 -26
15 -50 -5 -15 -11 -27 -26 -27 -32 -1 -36 -17 -37 -52 -4 -57 54 -133 58 -195
11 l-33 -25 -27 20 c-16 11 -39 22 -53 25 -37 6 -142 -13 -169 -31 -23 -15
-25 -14 -42 8 -15 21 -16 26 -3 40 17 19 18 61 2 77 -18 18 -62 14 -86 -8 -26
-24 -28 -47 -7 -71 14 -15 14 -18 1 -32 -8 -8 -18 -26 -22 -41 -8 -34 -16 -33
-37 4 -46 77 -159 86 -233 18 -15 -13 -24 -16 -29 -9 -3 6 -12 9 -18 5 -7 -3
-1 5 13 18 35 32 60 69 60 88 0 9 -9 26 -20 38 -22 23 -57 27 -116 13z m103
-38 c11 -28 -19 -65 -79 -97 -44 -24 -58 -36 -58 -53 0 -27 -2 -27 45 -8 101
43 109 -46 7 -95 l-52 -25 0 -52 c0 -58 -16 -103 -36 -103 -8 0 -22 12 -31 27
-26 39 -33 322 -9 357 30 47 199 86 213 49z m383 -23 c0 -12 -10 -25 -25 -32
-21 -9 -29 -9 -42 5 -22 22 -2 47 38 47 22 0 29 -5 29 -20z m664 -86 c6 -10
12 -21 13 -23 1 -2 9 4 18 13 43 43 109 32 132 -22 32 -77 -4 -280 -53 -299
-35 -13 -45 23 -38 138 4 69 3 108 -4 112 -21 14 -36 -27 -43 -120 -5 -77 -11
-99 -28 -116 -19 -20 -21 -20 -39 -4 -16 15 -20 38 -25 141 -6 123 1 182 25
198 17 11 29 6 42 -18z m-867 -4 c46 -28 65 -78 70 -195 5 -89 3 -103 -14
-124 -23 -28 -52 -23 -60 9 -6 24 -12 24 -37 5 -24 -18 -85 -19 -107 -2 -22
17 -39 51 -39 81 0 32 71 93 117 102 40 8 52 29 29 52 -15 15 -19 14 -62 -6
-49 -24 -74 -18 -74 17 0 18 44 65 70 74 32 11 76 6 107 -13z m190 -7 c15 -22
17 -46 16 -141 -3 -122 -15 -167 -48 -167 -35 0 -46 41 -43 165 2 91 7 122 21
143 22 34 32 34 54 0z m519 -4 c34 -32 54 -108 54 -210 0 -67 -4 -91 -16 -104
-21 -21 -46 -16 -60 12 -10 20 -13 21 -30 8 -10 -8 -37 -15 -60 -15 -46 0 -67
17 -85 68 -9 27 -8 37 6 58 20 30 67 61 117 74 29 8 35 14 31 30 -8 29 -37 33
-81 11 -34 -17 -42 -18 -58 -7 -16 12 -16 18 -6 40 30 65 135 85 188 35z
m-261 7 c56 -24 52 -44 -31 -163 -59 -86 -61 -91 -35 -82 44 15 115 8 119 -13
6 -30 -43 -51 -128 -56 -165 -9 -173 14 -56 166 31 40 53 72 50 72 -3 0 -25
-5 -49 -11 -76 -19 -120 32 -55 66 65 34 135 41 185 21z m74 -108 c19 -11 19
-13 -9 -44 -15 -18 -29 -37 -32 -44 -2 -6 -15 -10 -30 -8 l-26 3 35 53 c19 28
37 52 39 52 2 0 13 -5 23 -12z m-246 -16 c16 -7 15 -10 -8 -42 -14 -18 -26
-30 -26 -24 -11 71 -6 81 34 66z"/>
<path d="M1782 934 c-25 -18 -29 -44 -6 -44 27 0 54 20 54 40 0 24 -18 26 -48
4z"/>
<path d="M2472 934 c-25 -18 -29 -44 -6 -44 27 0 54 20 54 40 0 24 -18 26 -48
4z"/>
<path d="M246 1262 c-86 -30 -91 -44 -91 -252 0 -175 0 -179 24 -204 36 -39
118 -37 197 4 l57 31 26 -24 c42 -39 59 -45 109 -35 25 4 48 4 51 0 12 -18 55
-21 73 -5 14 12 23 13 49 4 26 -9 39 -7 75 8 24 11 56 31 71 45 25 23 28 24
34 8 4 -9 18 -27 31 -39 20 -19 27 -21 48 -10 14 7 35 32 47 57 14 29 22 38
23 25 0 -33 38 -85 73 -100 45 -19 114 -11 143 16 48 45 19 119 -46 119 -18 0
-20 6 -20 58 0 52 3 59 28 74 15 9 36 26 46 37 17 18 17 25 7 45 -7 13 -24 29
-37 35 -14 6 -24 19 -24 30 0 32 -20 68 -47 82 -36 19 -74 -7 -93 -64 -17 -52
-50 -76 -70 -51 -7 8 -8 14 -3 14 5 0 16 11 23 25 11 20 10 28 -4 50 -21 32
-65 33 -94 2 -26 -27 -28 -50 -7 -67 11 -9 13 -16 5 -24 -7 -7 -14 -5 -22 7
-21 27 -62 37 -104 25 -41 -11 -104 -67 -104 -92 0 -10 -15 0 -43 28 -59 58
-124 69 -182 30 -28 -20 -35 -17 -35 12 0 56 -70 115 -137 114 -15 -1 -50 -9
-77 -18z m152 -37 c42 -35 49 -75 22 -129 -11 -24 -27 -47 -35 -50 -19 -7 -19
-26 -1 -26 23 0 46 -41 46 -80 0 -83 -68 -133 -172 -128 -57 3 -63 5 -69 28
-9 31 -11 317 -3 347 8 27 85 62 141 63 30 0 50 -7 71 -25z m803 4 c6 -12 9
-37 6 -55 -5 -32 -4 -34 22 -34 62 0 65 -56 3 -74 -35 -10 -42 -27 -42 -113 0
-67 8 -78 51 -75 60 5 62 -59 3 -78 -48 -16 -99 -5 -124 27 -17 22 -20 40 -20
129 l0 103 -27 3 c-20 2 -29 9 -31 26 -3 19 4 26 36 39 35 13 40 20 45 54 3
22 11 46 17 54 18 22 48 18 61 -6z m-171 -9 c0 -12 -10 -25 -25 -32 -21 -9
-29 -9 -42 5 -22 22 -2 47 38 47 22 0 29 -5 29 -20z m-132 -62 c22 -22 13 -48
-23 -69 -43 -26 -47 -61 -9 -86 14 -9 30 -27 34 -39 25 -64 -49 -154 -126
-154 -76 0 -81 54 -9 85 43 17 44 33 5 87 -38 52 -39 95 -3 138 39 47 103 66
131 38z m-269 -23 c35 -18 59 -67 72 -148 12 -73 3 -171 -17 -188 -19 -15 -64
3 -64 26 0 15 -2 15 -22 1 -60 -42 -148 -2 -148 66 0 57 48 102 125 118 34 7
41 36 12 54 -14 9 -26 6 -57 -11 -46 -27 -70 -21 -70 17 0 61 101 101 169 65z
m388 -11 c14 -22 17 -48 15 -141 -1 -123 -14 -168 -47 -168 -36 0 -46 41 -43
171 3 103 6 125 22 143 25 27 32 26 53 -5z m-109 -100 c-3 -14 -5 -14 -23 0
-20 16 -20 16 0 32 18 14 20 14 23 0 2 -9 2 -23 0 -32z m-440 -31 c-8 -10 -15
-7 -29 11 -29 36 -23 51 10 24 20 -16 26 -27 19 -35z m292 -42 c14 -27 13 -31
-10 -31 -15 0 -19 6 -18 25 3 30 13 32 28 6z"/>
<path d="M287 1133 c-4 -3 -7 -25 -7 -47 l1 -41 29 33 c36 39 39 62 7 62 -13
0 -27 -3 -30 -7z"/>
<path d="M297 968 c-18 -10 -24 -58 -7 -58 12 0 50 37 50 49 0 14 -25 20 -43
9z"/>
<path d="M561 929 c-16 -15 -20 -24 -12 -32 16 -16 61 8 61 33 0 26 -20 26
-49 -1z"/>
</g>
</svg>
